<svg width="92" height="88" viewBox="0 0 92 88" fill="none" xmlns="http://www.w3.org/2000/svg">
<g clip-path="url(#clip0_184_383)">
<path d="M86.5077 51.1509C83.373 48.1257 79.2302 46.2833 74.8328 45.8941C78.6289 42.6273 81.024 37.9112 81.024 32.6429C81.024 22.787 72.6742 14.8002 62.3682 14.8002C52.5253 14.8002 44.4661 22.093 43.7666 31.3355C52.5233 34.9588 58.6683 43.306 58.6683 52.9971C58.6683 56.5361 57.8266 59.9946 56.2612 63.1329C58.516 64.2602 60.5945 65.7172 62.4063 67.4657C67.0522 71.9402 69.6918 78.1268 69.6417 84.4342L69.6377 84.5626L69.6337 84.6719L69.4694 87.6568H91.815L91.9994 64.0187C92.0374 59.1971 90.0632 54.573 86.5077 51.1509Z" fill="#939393"/>
<path d="M46.4668 66.2521C50.2609 62.9872 52.664 58.2692 52.664 53.0009C52.664 43.1431 44.3102 35.1544 34.0062 35.1544C23.7003 35.1544 15.3485 43.1431 15.3485 53.0009C15.3485 58.2596 17.7416 62.9738 21.5296 66.2406C11.829 66.9595 4.16665 74.6434 4.0965 84.1044L3.91211 87.6569H32.2785H63.451L63.6353 84.3709C63.6714 79.5512 61.6952 74.9271 58.1416 71.5051C55.003 68.4779 50.8621 66.6413 46.4668 66.2521Z" fill="#939393"/>
</g>
<defs>
<clipPath id="clip0_184_383">
<rect width="92" height="88" fill="white"/>
</clipPath>
</defs>
</svg>
