<?xml version="1.0" encoding="UTF-8" standalone="no"?>
<!-- Uploaded to: SVG Repo, www.svgrepo.com, Generator: SVG Repo Mixer Tools -->
<svg width="800px" height="800px" viewBox="0 0 60 60" version="1.1" xmlns="http://www.w3.org/2000/svg" xmlns:xlink="http://www.w3.org/1999/xlink">
    
    <title>field-basketball</title>
    <desc>Created with Sketch.</desc>
    <defs>
</defs>
    <g id="People" stroke="none" stroke-width="1" fill="none" fill-rule="evenodd">
        <g id="Icon-44" fill="#000000">
            <path d="M29,26.957 L29,54.957 C29,55.51 29.447,55.957 30,55.957 C30.553,55.957 31,55.51 31,54.957 L31,26.957 C31,26.404 30.553,25.957 30,25.957 C29.447,25.957 29,26.404 29,26.957 M55,35.957 C54.447,35.957 54,36.404 54,36.957 L54,38.957 C54,39.51 54.447,39.957 55,39.957 C55.553,39.957 56,39.51 56,38.957 L56,36.957 C56,36.404 55.553,35.957 55,35.957 M55,31.957 L52,31.957 C48.691,31.957 46,34.648 46,37.957 C46,41.266 48.691,43.957 52,43.957 L55,43.957 C55.553,43.957 56,43.51 56,42.957 C56,42.404 55.553,41.957 55,41.957 L52,41.957 C49.794,41.957 48,40.163 48,37.957 C48,35.751 49.794,33.957 52,33.957 L55,33.957 C55.553,33.957 56,33.51 56,32.957 C56,32.404 55.553,31.957 55,31.957 M55,22.957 C46.729,22.957 40,29.686 40,37.957 C40,46.228 46.729,52.957 55,52.957 C55.553,52.957 56,52.51 56,51.957 C56,51.404 55.553,50.957 55,50.957 C47.832,50.957 42,45.125 42,37.957 C42,30.789 47.832,24.957 55,24.957 C55.553,24.957 56,24.51 56,23.957 C56,23.404 55.553,22.957 55,22.957 M5,39.957 C5.553,39.957 6,39.51 6,38.957 L6,36.957 C6,36.404 5.553,35.957 5,35.957 C4.447,35.957 4,36.404 4,36.957 L4,38.957 C4,39.51 4.447,39.957 5,39.957 M5,43.957 L8,43.957 C11.309,43.957 14,41.266 14,37.957 C14,34.648 11.309,31.957 8,31.957 L5,31.957 C4.447,31.957 4,32.404 4,32.957 C4,33.51 4.447,33.957 5,33.957 L8,33.957 C10.206,33.957 12,35.751 12,37.957 C12,40.163 10.206,41.957 8,41.957 L5,41.957 C4.447,41.957 4,42.404 4,42.957 C4,43.51 4.447,43.957 5,43.957 M5,52.957 C13.271,52.957 20,46.228 20,37.957 C20,29.686 13.271,22.957 5,22.957 C4.447,22.957 4,23.404 4,23.957 C4,24.51 4.447,24.957 5,24.957 C12.168,24.957 18,30.789 18,37.957 C18,45.125 12.168,50.957 5,50.957 C4.447,50.957 4,51.404 4,51.957 C4,52.51 4.447,52.957 5,52.957 M20.245,9.777 C22.277,9.941 24.278,9.22 25.739,7.758 C27.203,6.295 27.923,4.292 27.758,2.257 C25.937,2.669 24.263,3.577 22.91,4.93 C21.529,6.311 20.647,8 20.245,9.777 M29.982,2 C29.904,2 29.827,2.01 29.749,2.012 C29.988,4.657 29.057,7.27 27.153,9.172 C25.446,10.879 23.169,11.805 20.81,11.805 C20.54,11.805 20.269,11.785 19.998,11.761 C19.942,14.088 20.685,16.429 22.239,18.328 L36.311,4.258 C34.529,2.796 32.317,2 29.982,2 M39.981,12 C39.981,9.665 39.187,7.453 37.725,5.672 L23.652,19.743 C25.435,21.205 27.647,22 29.982,22 C30.061,22 30.137,21.99 30.215,21.988 C29.977,19.345 30.907,16.732 32.811,14.829 C34.713,12.926 37.327,11.997 39.97,12.233 C39.972,12.155 39.981,12.078 39.981,12 M39.726,14.223 C37.691,14.058 35.688,14.778 34.225,16.243 C32.762,17.707 32.041,19.71 32.206,21.744 C34.026,21.332 35.7,20.425 37.053,19.072 C38.405,17.719 39.313,16.044 39.726,14.223 M18.102,10.436 C18.104,10.426 18.101,10.415 18.103,10.404 C18.104,10.399 18.107,10.395 18.108,10.391 C18.446,7.875 19.567,5.444 21.496,3.516 C23.764,1.249 26.777,0 29.982,0 C33.187,0 36.2,1.249 38.467,3.516 C40.733,5.781 41.981,8.795 41.981,12 C41.981,15.205 40.733,18.22 38.467,20.486 C36.201,22.752 33.187,24 29.983,24 L29.982,24 C26.777,24 23.763,22.752 21.496,20.485 C18.759,17.748 17.637,14.007 18.102,10.436 M60,20.957 L60,54.957 C60,57.714 57.757,59.957 55,59.957 L5,59.957 C2.243,59.957 0,57.714 0,54.957 L0,20.957 C0,18.2 2.243,15.957 5,15.957 L16,15.957 C16.553,15.957 17,16.404 17,16.957 C17,17.51 16.553,17.957 16,17.957 L5,17.957 C3.346,17.957 2,19.303 2,20.957 L2,54.957 C2,56.611 3.346,57.957 5,57.957 L55,57.957 C56.654,57.957 58,56.611 58,54.957 L58,20.957 C58,19.303 56.654,17.957 55,17.957 L44,17.957 C43.447,17.957 43,17.51 43,16.957 C43,16.404 43.447,15.957 44,15.957 L55,15.957 C57.757,15.957 60,18.2 60,20.957" id="field-basketball">
</path>
        </g>
    </g>
</svg>