<svg width="134" height="127" viewBox="0 0 134 127" fill="none" xmlns="http://www.w3.org/2000/svg">
<path d="M105.536 0C110.956 0 115.79 5.50488 115.79 12.8994C115.79 20.3203 110.956 25.7988 105.536 25.7988C100.116 25.7988 95.2821 20.3203 95.2821 12.8994C95.2821 5.50488 100.116 0 105.536 0ZM66.6005 0C71.9911 0 76.8544 5.50488 76.8544 12.8994C76.8544 20.3203 71.9911 25.7988 66.6005 25.7988C61.1806 25.7988 56.3173 20.3203 56.3173 12.8994C56.3173 5.50488 61.1806 0 66.6005 0ZM27.6356 0C33.0556 0 37.8896 5.50488 37.8896 12.8994C37.8896 20.3203 33.0556 25.7988 27.6356 25.7988C22.2157 25.7988 17.3554 20.3203 17.3554 12.8994C17.3554 5.50488 22.2157 0 27.6356 0ZM66.6005 31.9512C85.3505 32.5371 101.171 32.5371 120.155 33.1816C129.208 38.3965 133.397 65.1152 133.134 74.4023L127.977 79.5879C125.722 67.0488 122.88 50.3203 118.163 46.5996V72.2637L119.364 126.082H112.86L107.968 71.9707H102.694L97.8017 126.082H91.2685L92.4989 72.2637L90.1552 46.3359H81.5712L79.4618 72.1758L80.6923 125.994H74.1591L69.2372 71.8828H63.9638L59.0419 125.994H52.538L53.7685 72.1758L51.6298 46.3359H43.0458L40.7021 72.2637L41.9325 126.082H35.3993L30.5067 71.9707H25.2333L20.2851 126.082H13.7812L15.0116 72.2637V46.5996C10.2655 50.3203 7.42373 67.0488 5.16787 79.5879L0.0116244 74.4023C-0.252047 65.1152 3.9667 38.3965 12.9901 33.1816C32.0302 32.5371 47.8505 32.5371 66.6005 31.9512Z" fill="#939393"/>
</svg>
