<svg width="150" height="150" viewBox="0 0 150 150" fill="none" xmlns="http://www.w3.org/2000/svg">
<path fill-rule="evenodd" clip-rule="evenodd" d="M72.5 67.4408V137.491C72.5 138.875 73.6175 139.993 75 139.993C76.3825 139.993 77.5 138.875 77.5 137.491V67.4408C77.5 66.0573 76.3825 64.939 75 64.939C73.6175 64.939 72.5 66.0573 72.5 67.4408ZM137.5 89.957C136.118 89.957 135 91.0753 135 92.4588V97.4623C135 98.8458 136.118 99.9641 137.5 99.9641C138.882 99.9641 140 98.8458 140 97.4623V92.4588C140 91.0753 138.882 89.957 137.5 89.957ZM137.5 79.9498H130C121.727 79.9498 115 86.6821 115 94.9606C115 103.239 121.727 109.971 130 109.971H137.5C138.882 109.971 140 108.853 140 107.47C140 106.086 138.882 104.968 137.5 104.968H130C124.485 104.968 120 100.48 120 94.9606C120 89.4416 124.485 84.9534 130 84.9534H137.5C138.882 84.9534 140 83.8351 140 82.4516C140 81.0681 138.882 79.9498 137.5 79.9498ZM137.5 57.4337C116.823 57.4337 100 74.2682 100 94.9606C100 115.653 116.823 132.487 137.5 132.487C138.882 132.487 140 131.369 140 129.986C140 128.602 138.882 127.484 137.5 127.484C119.58 127.484 105 112.893 105 94.9606C105 77.0277 119.58 62.4372 137.5 62.4372C138.882 62.4372 140 61.3189 140 59.9355C140 58.552 138.882 57.4337 137.5 57.4337ZM12.5 99.9641C13.8825 99.9641 15 98.8458 15 97.4623V92.4588C15 91.0753 13.8825 89.957 12.5 89.957C11.1175 89.957 10 91.0753 10 92.4588V97.4623C10 98.8458 11.1175 99.9641 12.5 99.9641ZM12.5 109.971H20C28.2725 109.971 35 103.239 35 94.9606C35 86.6821 28.2725 79.9498 20 79.9498H12.5C11.1175 79.9498 10 81.0681 10 82.4516C10 83.8351 11.1175 84.9534 12.5 84.9534H20C25.515 84.9534 30 89.4416 30 94.9606C30 100.48 25.515 104.968 20 104.968H12.5C11.1175 104.968 10 106.086 10 107.47C10 108.853 11.1175 109.971 12.5 109.971ZM12.5 132.487C33.1775 132.487 50 115.653 50 94.9606C50 74.2682 33.1775 57.4337 12.5 57.4337C11.1175 57.4337 10 58.552 10 59.9355C10 61.3189 11.1175 62.4372 12.5 62.4372C30.42 62.4372 45 77.0277 45 94.9606C45 112.893 30.42 127.484 12.5 127.484C11.1175 127.484 10 128.602 10 129.986C10 131.369 11.1175 132.487 12.5 132.487ZM50.6125 24.46C55.6925 24.8703 60.695 23.0665 64.3475 19.4089C68.0075 15.7488 69.8075 10.7377 69.395 5.64655C64.8425 6.67729 60.6575 8.94891 57.275 12.3338C53.8225 15.7888 51.6175 20.0143 50.6125 24.46ZM74.955 5.00359C74.76 5.00359 74.5675 5.0286 74.3725 5.03361C74.97 11.6508 72.6425 18.188 67.8825 22.9464C63.615 27.217 57.9225 29.5337 52.025 29.5337C51.35 29.5337 50.6725 29.4836 49.995 29.4236C49.855 35.2453 51.7125 41.102 55.5975 45.8529L90.7775 10.6526C86.3225 6.99501 80.7925 5.00359 74.955 5.00359ZM99.9525 30.0215C99.9525 24.1798 97.9675 18.6459 94.3125 14.1902L59.13 49.3929C63.5875 53.0505 69.1175 55.0394 74.955 55.0394C75.1525 55.0394 75.3425 55.0144 75.5375 55.0094C74.9425 48.3972 77.2675 41.86 82.0275 37.0991C86.7825 32.3382 93.3175 30.014 99.925 30.6044C99.93 30.4093 99.9525 30.2167 99.9525 30.0215ZM99.315 35.583C94.2275 35.1702 89.22 36.9715 85.5625 40.6366C81.905 44.2992 80.1025 49.3103 80.515 54.399C85.065 53.3682 89.25 51.0991 92.6325 47.7142C96.0125 44.3293 98.2825 40.1388 99.315 35.583ZM45.255 26.1087C45.26 26.0837 45.2525 26.0562 45.2575 26.0287C45.26 26.0161 45.2675 26.0061 45.27 25.9961C46.115 19.7016 48.9175 13.6198 53.74 8.7963C59.41 3.12474 66.9425 0 74.955 0C82.9675 0 90.5 3.12474 96.1675 8.7963C101.832 14.4629 104.952 22.0033 104.952 30.0215C104.952 38.0398 101.832 45.5827 96.1675 51.2517C90.5025 56.9208 82.9675 60.043 74.9575 60.043C66.945 60.043 59.4075 56.9208 53.74 51.2492C46.8975 44.4018 44.0925 35.0426 45.255 26.1087ZM150 52.4301V137.491C150 144.388 144.392 150 137.5 150H12.5C5.6075 150 0 144.388 0 137.491V52.4301C0 45.5326 5.6075 39.9211 12.5 39.9211H40C41.3825 39.9211 42.5 41.0394 42.5 42.4229C42.5 43.8064 41.3825 44.9247 40 44.9247H12.5C8.365 44.9247 5 48.2921 5 52.4301V137.491C5 141.629 8.365 144.996 12.5 144.996H137.5C141.635 144.996 145 141.629 145 137.491V52.4301C145 48.2921 141.635 44.9247 137.5 44.9247H110C108.618 44.9247 107.5 43.8064 107.5 42.4229C107.5 41.0394 108.618 39.9211 110 39.9211H137.5C144.392 39.9211 150 45.5326 150 52.4301Z" fill="#939393"/>
</svg>
