<svg width="150" height="150" viewBox="0 0 150 150" fill="white" xmlns="http://www.w3.org/2000/svg">
<g clip-path="url(#clip0_33_15)">
<path d="M17.7017 102.373C18.9571 101.369 19.1616 99.5378 18.1579 98.2827C10.1187 88.2267 5.75553 75.6468 5.82137 62.7646C22.5557 66.0826 41.987 67.8302 62.2704 67.8302C75.4018 67.8302 88.1792 67.0972 100.098 65.6799C100.122 66.569 100.124 67.4603 100.106 68.3544C100.053 70.81 99.8424 73.2757 99.4775 75.6835C99.2371 77.2725 100.33 78.7557 101.919 78.9965C103.509 79.2381 104.992 78.1438 105.233 76.5548C105.634 73.8999 105.867 71.1825 105.924 68.4774C105.95 67.29 105.94 66.1052 105.898 64.9265C110.317 64.3027 114.6 63.5813 118.72 62.7646C118.723 63.2575 118.718 63.7519 118.708 64.2474C118.656 66.7054 118.445 69.1711 118.08 71.5761C117.839 73.1655 118.932 74.6486 120.521 74.8894C122.115 75.1346 123.594 74.0371 123.835 72.4484C124.236 69.7965 124.47 67.0787 124.527 64.3707C125.251 30.0421 97.9129 1.5246 63.5851 0.800317C29.2732 0.0625687 0.73826 27.4142 0.0139722 61.7427C-0.293059 76.298 4.53613 90.5651 13.6114 101.917C14.1862 102.636 15.0323 103.01 15.8865 103.01C16.5238 103.01 17.1652 102.802 17.7017 102.373ZM108.853 31.207C113.984 38.6892 117.358 47.4574 118.388 56.8957C114.23 57.7371 109.897 58.4785 105.416 59.117C104.187 49.6961 100.821 40.7307 95.6473 32.8825C100.176 32.418 104.593 31.8581 108.853 31.207ZM63.4621 6.61936C79.9527 6.9675 94.664 14.3908 104.754 25.9234C100.502 26.516 96.1049 27.018 91.6075 27.4258C88.2902 23.4213 84.4483 19.8035 80.1382 16.6841C78.8351 15.7408 77.0162 16.0336 76.0744 17.3353C75.1318 18.6372 75.4236 20.4569 76.7256 21.3991C79.4732 23.3878 82.0106 25.5996 84.3206 27.9995C77.1112 28.4815 69.7075 28.7285 62.2704 28.7285C47.5576 28.7285 32.9827 27.7627 19.7855 25.9238C30.4071 13.7906 46.1229 6.2563 63.4621 6.61936ZM15.6835 31.2066C29.9979 33.3951 46.0603 34.549 62.2704 34.549C71.3063 34.549 80.3008 34.19 88.9719 33.493C94.6942 41.1975 98.3935 50.2753 99.6452 59.874C87.8907 61.2822 75.2643 62.0105 62.2704 62.0105C42.0343 62.0105 22.6972 60.245 6.15532 56.8961C7.1881 47.4236 10.5654 38.6677 15.6835 31.2066ZM139.699 104.53H139.034V89.8503C139.034 84.6649 134.815 80.4462 129.63 80.4462C127.114 80.4462 124.825 81.4389 123.136 83.0541C121.447 81.4393 119.158 80.4462 116.642 80.4462C111.456 80.4462 107.237 84.6649 107.237 89.8503V104.53H57.6453V89.8503C57.6453 84.6649 53.4265 80.4462 48.2411 80.4462C45.7249 80.4462 43.4363 81.4393 41.7466 83.0545C40.0572 81.4397 37.7686 80.4462 35.2527 80.4462C30.0674 80.4462 25.849 84.6649 25.849 89.8503V104.53H25.1825C19.5028 104.53 14.8817 109.151 14.8817 114.83C14.8817 120.51 19.5028 125.131 25.1825 125.131H25.849V139.81C25.849 144.995 30.0674 149.214 35.2527 149.214C37.7686 149.214 40.0572 148.221 41.7466 146.606C43.4363 148.221 45.7249 149.214 48.2411 149.214C53.4265 149.214 57.6453 144.995 57.6453 139.81V125.131H107.238V139.81C107.238 144.995 111.457 149.214 116.643 149.214C119.159 149.214 121.447 148.221 123.137 146.606C124.826 148.221 127.114 149.214 129.63 149.214C134.816 149.214 139.035 144.995 139.035 139.81V125.131H139.7C145.38 125.131 150.001 120.51 150.001 114.83C150.001 109.151 145.379 104.53 139.699 104.53ZM25.8493 119.311H25.1829C22.7125 119.311 20.7026 117.301 20.7026 114.831C20.7026 112.36 22.7125 110.351 25.1829 110.351H25.8493V119.311ZM38.8367 139.811C38.8367 141.787 37.2291 143.394 35.2531 143.394C33.2774 143.394 31.6698 141.787 31.6698 139.811V122.221V89.8506C31.6698 87.8746 33.2774 86.267 35.2531 86.267C37.2291 86.267 38.8367 87.8746 38.8367 89.8506V139.811ZM51.8248 139.811C51.8248 141.787 50.2172 143.394 48.2411 143.394C46.2647 143.394 44.6568 141.787 44.6568 139.811V89.8506C44.6568 87.8746 46.2647 86.267 48.2411 86.267C50.2172 86.267 51.8248 87.8746 51.8248 89.8506V139.811ZM107.238 119.311H57.6453V110.35H107.238V119.311ZM120.226 139.811C120.226 141.787 118.619 143.394 116.642 143.394C114.666 143.394 113.058 141.787 113.058 139.811V122.221V89.8506C113.058 87.8746 114.666 86.267 116.642 86.267C118.619 86.267 120.226 87.8746 120.226 89.8506V139.811ZM133.213 139.811C133.213 141.787 131.606 143.394 129.63 143.394C127.654 143.394 126.047 141.787 126.047 139.811V89.8506C126.047 87.8746 127.654 86.267 129.63 86.267C131.606 86.267 133.213 87.8746 133.213 89.8506V139.811ZM139.699 119.311H139.034V110.35H139.699C142.17 110.35 144.179 112.36 144.179 114.83C144.179 117.301 142.17 119.311 139.699 119.311Z" fill="white"/>
</g>
<defs>
<clipPath id="clip0_33_15">
<rect width="150" height="150" fill="white"/>
</clipPath>
</defs>
</svg>
